<?xml version="1.0" encoding="UTF-8" standalone="no"?>
<!-- Created with Inkscape (http://www.inkscape.org/) -->

<svg
     xmlns:dc="http://purl.org/dc/elements/1.1/"
     xmlns:cc="http://creativecommons.org/ns#"
     xmlns:rdf="http://www.w3.org/1999/02/22-rdf-syntax-ns#"
     xmlns:svg="http://www.w3.org/2000/svg"
     xmlns="http://www.w3.org/2000/svg"
     xmlns:sodipodi="http://sodipodi.sourceforge.net/DTD/sodipodi-0.dtd"
     xmlns:inkscape="http://www.inkscape.org/namespaces/inkscape"
     width="2600"
     height="1600"
     id="svg2"
     version="1.1"
     inkscape:version="0.48.5 r10040"
     sodipodi:docname="abstract-topiary02.svg">
    <defs
         id="defs4" />
    <sodipodi:namedview
         id="base"
         pagecolor="#ffffff"
         bordercolor="#666666"
         borderopacity="1.0"
         inkscape:pageopacity="0.0"
         inkscape:pageshadow="2"
         inkscape:zoom="0.35"
         inkscape:cx="893.47339"
         inkscape:cy="508.57142"
         inkscape:document-units="px"
         inkscape:current-layer="layer1"
         showgrid="false"
         fit-margin-top="0"
         fit-margin-left="0"
         fit-margin-right="0"
         fit-margin-bottom="0" />
    <metadata
         id="metadata7">
        <rdf:RDF>
            <cc:Work
                 rdf:about="">
                <dc:format>image/svg+xml</dc:format>
                <dc:type
                     rdf:resource="http://purl.org/dc/dcmitype/StillImage" />
                <dc:title />
            </cc:Work>
        </rdf:RDF>
    </metadata>
    <g
         inkscape:label="Layer 1"
         inkscape:groupmode="layer"
         id="layer1"
         transform="translate(0,547.63782)">
        <rect
             style="color:#000000;fill:#53676c;fill-opacity:1;fill-rule:nonzero;stroke:none;stroke-width:1;marker:none;visibility:visible;display:inline;overflow:visible;enable-background:accumulate;stroke-linecap:butt;stroke-linejoin:miter;stroke-miterlimit:4;stroke-opacity:1;stroke-dasharray:none;stroke-dashoffset:0"
             id="rect3870"
             width="2600"
             height="1600"
             x="0"
             y="-547.63782" />
        <path
             inkscape:connector-curvature="0"
             id="path3094"
             d="M 1151.7267,278.61218 C 1131.4571,248.03444 1103.4762,208.3227 1094.3388,197.16471 1091.5001,193.69832 1082.6321,182.41964 1074.6321,172.10099 888.38995,-68.11888 670.49927,-195.89567 453,-192.44032 439.525,-192.22625 427.825,-191.70275 427,-191.27698 426.175,-190.85122 423.49445,-187.72073 421.04323,-184.32034 394.18986,-147.06884 382.40462,-130.09927 362.92635,-100.63782 350.38113,-81.66282 339.17532,-65.01282 338.02453,-63.63782 336.02348,-61.24687 335.87916,-61.21953 334.7161,-63.01104 305.64256,-107.79441 276.03804,-151.09862 255.89527,-178.30674 L 246.14603,-191.47566 240.39438,-192.19428 C 231.23093,-193.33918 174.0096,-191.93472 158,-190.17197 126.42301,-186.69516 99.623451,-181.89347 70.5,-174.49455 54.825488,-170.51239 18.627044,-159.10147 6.25,-154.24088 L 0,-151.78644 0,-303.29616 0,-454.80588 3.8457375,-451.76 C 5.9608932,-450.08476 13.048393,-444.12226 19.595738,-438.50998 94.563758,-374.24862 162.06622,-301.9315 234.06277,-208.74593 241.45325,-199.1804 249.29461,-189.0554 251.48802,-186.24593 265.20098,-168.68148 313.40423,-98.59514 330.48393,-71.38782 333.15976,-67.12532 335.84851,-63.63782 336.45893,-63.63782 337.06935,-63.63782 338.41388,-65.10032 339.44678,-66.88782 348.67658,-82.86066 397.35107,-154.16012 416.07725,-179.13782 501.37769,-292.91483 578.20917,-376.01695 665,-448.37652 702.73416,-479.83638 756.65156,-518.64114 788.08786,-536.96379 L 792.67572,-539.63782 1041.3626,-539.63782 1290.0495,-539.63782 1290.9115,-537.38782 C 1292.7973,-532.46557 1315.2527,-499.12467 1316.8287,-498.90694 1318.4534,-498.6825 1319.7725,-500.59689 1338.8644,-530.88782 L 1344.3793,-539.63782 1592.97,-539.63782 1841.5607,-539.63782 1860.4076,-527.64384 C 1961.9589,-463.01744 2059.8733,-373.854 2153.6189,-260.63782 2166.7762,-244.74773 2178.6283,-229.85609 2195.8009,-207.63782 2201.9648,-199.66282 2208.6262,-191.11282 2210.6041,-188.63782 2222.7922,-173.3859 2270.2989,-104.56802 2289.4736,-74.38782 2293.23,-68.47532 2296.6944,-63.63782 2297.1722,-63.63782 2297.6499,-63.63782 2302.6288,-70.72532 2308.2362,-79.38782 2346.2117,-138.05315 2376.5142,-180.12958 2421.8446,-237.13782 2473.0154,-301.49113 2527.8693,-360.72419 2582.4356,-410.54914 2591.5241,-418.84791 2599.1941,-425.63782 2599.4801,-425.63782 2599.766,-425.63782 2600,-366.75392 2600,-294.78471 L 2600,-163.93159 2583.75,-168.77998 C 2543.0447,-180.9249 2498.9521,-188.8255 2456,-191.67043 2437.9027,-192.86911 2390.6449,-192.61772 2388,-191.30871 2384.4211,-189.53738 2336.9531,-121.74182 2308.2499,-77.40666 2301.4016,-66.82872 2297.6151,-61.84829 2296.6908,-62.20298 2295.9348,-62.49309 2294.3197,-64.50353 2293.1017,-66.67063 2284.9984,-81.0885 2219.4774,-176.26772 2209.1399,-188.63782 L 2206.215,-192.13782 2171.3575,-192.09395 C 2135.0873,-192.04829 2120.0094,-191.01147 2090,-186.49945 1907.8618,-159.11435 1729.1026,-40.85399 1570.9837,156.86218 1534.219,202.83376 1516.5549,226.89623 1485.5246,273.27634 1472.8611,292.20413 1462.0862,307.66644 1461.5804,307.63703 1461.0746,307.60761 1454.53,298.19624 1447.0368,286.72286 1430.9873,262.14823 1412.1772,234.94159 1396.3167,213.36218 1370.5147,178.25658 1319.6618,115.44585 1317,115.39459 1314.7388,115.35104 1284.1458,152.02778 1258.2212,185.86218 1253.1641,192.46218 1247.393,199.88718 1245.3964,202.36218 1235.3209,214.8518 1194.7144,273.56335 1178.4815,299.11218 1175.249,304.19968 1172.3441,308.36218 1172.026,308.36218 1171.7079,308.36218 1162.5732,294.97468 1151.7267,278.61218 z"
             style="fill:#53676c;fill-opacity:1;color:#000000;fill-rule:nonzero;stroke-width:1;stroke-linecap:butt;stroke-linejoin:miter;stroke-miterlimit:4;stroke-opacity:1;stroke-dasharray:none;stroke-dashoffset:0;marker:none;visibility:visible;display:inline;overflow:visible;enable-background:accumulate" />
        <path
             inkscape:connector-curvature="0"
             id="path3092"
             d="M 330.48393,-79.38782 C 313.40423,-106.59514 265.20098,-176.68148 251.48802,-194.24593 249.29461,-197.0554 241.45325,-207.1804 234.06277,-216.74593 160.34002,-312.16572 90.135218,-386.98235 14.25,-450.99842 L 0,-463.01959 0,-505.32871 0,-547.63782 396.17288,-547.63782 792.34577,-547.63782 781.42288,-540.83106 C 742.31485,-516.46028 701.91796,-487.1559 665,-456.37652 578.20917,-384.01695 501.37769,-300.91483 416.07725,-187.13782 397.35107,-162.16012 348.67658,-90.86066 339.44678,-74.88782 338.41388,-73.10032 337.06935,-71.63782 336.45893,-71.63782 335.84851,-71.63782 333.15976,-75.12532 330.48393,-79.38782 z M 2289.4736,-82.38782 C 2270.2795,-112.59847 2222.7379,-181.464 2210.6006,-196.63782 2208.6209,-199.11282 2201.3981,-208.39502 2194.55,-217.26494 2143.2308,-283.73494 2101.4193,-331.28416 2047.3655,-384.6473 2000.7962,-430.6216 1960.7587,-464.85747 1911,-501.25276 1897.7119,-510.97215 1861.853,-535.09024 1848.3832,-543.36773 L 1841.5,-547.59764 2220.75,-547.61773 2600,-547.63782 2599.9412,-490.88782 2599.8824,-434.13782 2587.6912,-423.25682 C 2534.6065,-375.87714 2474.3073,-311.11596 2421.8446,-245.13782 2376.5142,-188.12958 2346.2117,-146.05315 2308.2362,-87.38782 2302.6288,-78.72532 2297.6499,-71.63782 2297.1722,-71.63782 2296.6944,-71.63782 2293.23,-76.47532 2289.4736,-82.38782 z M 1303.3842,-525.38782 C 1296.7381,-535.70032 1291.0219,-544.92532 1290.6816,-545.88782 1290.1021,-547.52656 1291.7796,-547.63782 1317.0666,-547.63782 L 1344.0704,-547.63782 1342.8945,-545.38782 C 1342.2478,-544.15032 1336.7943,-535.53909 1330.7757,-526.25176 1324.7571,-516.96443 1319.5973,-508.75193 1319.3094,-508.00176 1317.8699,-504.25049 1314.9575,-507.4301 1303.3842,-525.38782 z"
             style="fill:#47595d;fill-opacity:1" />
        <path
             inkscape:connector-curvature="0"
             id="path3090"
             d="M 199.41174,603.58708 C 175.91037,567.74228 159.18983,544.38758 134.32094,512.67038 97.184466,465.30748 75.144139,440.38462 34.308545,399.57785 L 0,365.29352 0,105.86303 0,-153.56745 2.0262335,-154.65186 C 3.1406619,-155.24828 15.403162,-159.50164 29.276233,-164.10376 74.120392,-178.97994 110.77264,-186.97196 158,-192.17197 174.0096,-193.93472 231.23093,-195.33918 240.39438,-194.19428 L 246.14603,-193.47566 255.89527,-180.30674 C 276.03804,-153.09862 305.64256,-109.79441 334.7161,-65.01104 335.87916,-63.21953 336.02348,-63.24687 338.02453,-65.63782 339.17532,-67.01282 350.38113,-83.66282 362.92635,-102.63782 382.40462,-132.09927 394.18986,-149.06884 421.04323,-186.32034 423.49445,-189.72073 426.175,-192.85122 427,-193.27698 429.58547,-194.61129 476.68114,-194.88379 495,-193.67043 653.16618,-183.19427 805.61697,-108.00353 949.89928,30.6919 992.43774,71.58319 1035.9925,120.26269 1074.6321,170.10099 1082.6321,180.41964 1091.5001,191.70296 1094.3388,195.17503 1103.637,206.54803 1128.8356,242.26454 1150.2065,274.36218 1161.7417,291.68718 1171.5481,305.86218 1171.9986,305.86218 1172.4491,305.86218 1178.0804,297.76218 1184.5125,287.86218 1203.1679,259.14867 1235.7655,212.3006 1245.3964,200.36218 1247.393,197.88718 1253.1641,190.46218 1258.2212,183.86218 1284.1458,150.02778 1314.7388,113.35104 1317,113.39459 1319.6618,113.44585 1370.5147,176.25658 1396.3167,211.36218 1412.153,232.90867 1430.9812,260.13888 1446.9564,284.59969 1454.4054,296.00533 1460.9242,305.45533 1461.4427,305.59969 1461.9611,305.74406 1472.7722,290.33718 1485.4672,271.36218 1543.1722,185.11179 1602.4399,111.99036 1667.4884,46.79358 1800.8708,-86.89279 1943.8713,-166.52849 2090,-188.49945 2120.0094,-193.01147 2135.0873,-194.04829 2171.3575,-194.09395 L 2206.215,-194.13782 2209.1399,-190.63782 C 2219.4774,-178.26772 2284.9984,-83.0885 2293.1017,-68.67063 2294.3197,-66.50353 2295.9348,-64.49309 2296.6908,-64.20298 2297.6151,-63.84829 2301.4016,-68.82872 2308.2499,-79.40666 2336.9531,-123.74182 2384.4211,-191.53738 2388,-193.30871 2390.6449,-194.61772 2437.9027,-194.86911 2456,-193.67043 2498.8092,-190.83496 2542.7804,-182.96996 2583.5,-170.86487 L 2599.5,-166.1084 2599.7518,115.70561 2600.0035,397.51962 2582.7518,415.69822 C 2551.5082,448.62034 2526.8961,477.18878 2502.2188,509.17688 2495.2235,518.24468 2487.7876,527.67708 2485.6947,530.13768 2479.4673,537.45928 2455.7459,571.16748 2438.7387,596.86218 2430.0017,610.06218 2422.3056,621.42688 2421.6361,622.11698 2420.6712,623.11178 2416.8774,618.03448 2403.3296,597.61698 2384.9349,569.89478 2362.67,538.33138 2354.3365,528.16278 2351.4966,524.69748 2344.1136,515.33718 2337.9299,507.36218 2319.0773,483.04848 2298.9472,459.36008 2297.1667,459.39338 2295.396,459.42648 2274.7027,483.95718 2255.4365,508.86218 2249.0544,517.11218 2241.5264,526.68578 2238.7075,530.13678 2230.4025,540.30428 2213.022,564.96418 2193.7932,593.86218 2183.912,608.71218 2175.2855,621.42688 2174.6232,622.11698 2173.6725,623.10768 2169.8222,617.95008 2156.3334,597.61698 2138.1563,570.21678 2115.8508,538.60788 2107.3365,528.18378 2104.4966,524.70688 2097.1099,515.33718 2090.9216,507.36218 2034.6734,434.87405 1970.0485,369.71705 1907.0013,321.9277 1807.0475,246.16325 1703.4368,204.47402 1597.5,197.39541 1580.6958,196.27257 1549.8683,196.15427 1543.0057,197.1863 L 1538.5113,197.86218 1524.7166,216.86218 C 1517.1296,227.31218 1500.2837,251.83718 1487.2814,271.36218 1474.2792,290.88718 1463.2685,307.29289 1462.8133,307.81932 1461.526,309.30816 1460.1528,307.48885 1444.7315,283.86218 1430.3553,261.83685 1412.8193,236.34567 1395,211.57024 1388.6813,202.78492 1384.6628,198.11065 1383,197.61195 1381.625,197.19958 1370.15,196.88012 1357.5,196.90204 1344.85,196.92396 1326.625,196.9419 1317,196.9419 1307.375,196.9419 1289.15,196.92396 1276.5,196.90204 1263.85,196.88012 1252.3454,197.18744 1250.9343,197.58497 1249.1608,198.08459 1245.2485,202.59531 1238.2635,212.19384 1222.3701,234.03412 1200.3413,266.05756 1186.2491,287.80782 1179.1415,298.77792 1172.8414,307.91504 1172.2489,308.11254 1171.6564,308.31004 1161.9769,294.6095 1150.7389,277.6669 1131.4367,248.56676 1100.4994,204.42214 1096.0932,199.69261 1093.2002,196.58737 1084.9,195.95714 1056.5,196.68629 1003.9721,198.03492 960.88719,205.69063 909.5,222.80658 789.51712,262.77026 673.47106,349.04033 566.60696,477.71748 530.22527,521.52538 502.57756,558.84828 472.67834,604.51608 466.32134,614.22568 460.73977,622.40498 460.27487,622.69228 459.80996,622.97968 450.83656,610.31038 440.33397,594.53848 412.37667,552.55438 391.3243,524.20728 357.2216,482.62708 338.2275,459.46828 337.46697,458.68048 335.33084,459.95178 332.69585,461.52008 313.3447,484.71308 295.77383,507.36218 287.45353,518.08718 279.4167,528.21218 277.91422,529.86218 273.14976,535.09448 249.34864,568.92408 231.33113,596.07288 221.76392,610.48878 213.57334,622.50788 213.12985,622.78198 212.68635,623.05598 206.5132,614.41828 199.41174,603.58708 z"
             style="fill:#6f8a91;fill-opacity:1" />
        <path
             inkscape:connector-curvature="0"
             id="path3088"
             d="M 1047.699,863.61218 C 989.12811,776.37758 922.6021,701.53568 855.5,647.38788 781.47729,587.65538 704.50059,550.03698 625.5,534.98688 597.87817,529.72478 560.49535,526.71618 538.15886,527.95758 L 525.81772,528.64338 520.65886,535.69408 C 505.31062,556.67068 494.34889,572.48358 478.78825,596.09468 466.57361,614.62868 461.01002,622.25898 459.83042,622.09468 458.8786,621.96218 450.45121,610.25468 440.22761,594.86218 415.70146,557.93598 395.14113,529.43318 392.57566,528.80238 389.26784,527.98898 335.51266,527.62338 296.02705,528.14568 281.83598,528.33348 279.31946,528.60598 277.8602,530.11288 274.23149,533.86028 248.17708,571.13698 231.75823,596.07218 221.6355,611.44558 213.85443,622.29878 212.9386,622.32218 211.99276,622.34638 206.27626,614.58138 198.4386,602.62608 176.16349,568.64848 149.25532,530.71748 146.14237,528.90698 143.84716,527.57198 102.07515,527.84498 87.5,529.29018 61.075841,531.91018 35.125627,536.68978 11.317382,543.32168 5.4278155,544.96228 0.46964377,546.16518 0.2992222,545.99478 0.12880063,545.82428 0.10425772,504.77478 0.2446824,454.77353 L 0.5,363.86218 34.554738,397.86218 C 75.128288,438.37051 97.201762,463.32958 134.32094,510.67038 159.18983,542.38758 175.91037,565.74228 199.41174,601.58708 206.5132,612.41828 212.68635,621.05598 213.12985,620.78198 213.57334,620.50788 221.76392,608.48878 231.33113,594.07288 249.34864,566.92408 273.14976,533.09448 277.91422,527.86218 279.4167,526.21218 287.45353,516.08718 295.77383,505.36218 313.3447,482.71308 332.69585,459.52008 335.33084,457.95178 337.46697,456.68048 338.2275,457.46828 357.2216,480.62708 391.3243,522.20728 412.37667,550.55438 440.33397,592.53848 450.83656,608.31038 459.80996,620.97968 460.27487,620.69228 460.73977,620.40498 466.32134,612.22568 472.67834,602.51608 535.71093,506.24078 609.33093,419.75532 683.5,354.85229 753.99655,293.16296 833.06602,246.26507 909.5,220.80658 960.88719,203.69063 1003.9721,196.03492 1056.5,194.68629 1084.9,193.95714 1093.2002,194.58737 1096.0932,197.69261 1100.4994,202.42214 1131.4367,246.56676 1150.7389,275.6669 1161.9769,292.6095 1171.6564,306.31004 1172.2489,306.11254 1172.8414,305.91504 1179.1415,296.77792 1186.2491,285.80782 1200.3413,264.05756 1222.3701,232.03412 1238.2635,210.19384 1245.2485,200.59531 1249.1608,196.08459 1250.9343,195.58497 1252.3454,195.18744 1263.85,194.88012 1276.5,194.90204 1289.15,194.92396 1307.375,194.9419 1317,194.9419 1326.625,194.9419 1344.85,194.92396 1357.5,194.90204 1370.15,194.88012 1381.625,195.19958 1383,195.61195 1384.6628,196.11065 1388.6813,200.78492 1395,209.57024 1412.8193,234.34567 1430.3553,259.83685 1444.7315,281.86218 1460.1528,305.48885 1461.526,307.30816 1462.8133,305.81932 1463.2685,305.29289 1474.2792,288.88718 1487.2814,269.36218 1500.2837,249.83718 1517.1296,225.31218 1524.7166,214.86218 L 1538.5113,195.86218 1543.0057,195.1863 C 1549.8683,194.15427 1580.6958,194.27257 1597.5,195.39541 1703.4368,202.47402 1807.0475,244.16325 1907.0013,319.9277 1970.0485,367.71705 2034.6734,432.87405 2090.9216,505.36218 2097.1099,513.33718 2104.4966,522.70688 2107.3365,526.18378 2115.8508,536.60788 2138.1563,568.21678 2156.3334,595.61698 2169.8222,615.95008 2173.6725,621.10768 2174.6232,620.11698 2175.2855,619.42688 2183.912,606.71218 2193.7932,591.86218 2213.022,562.96418 2230.4025,538.30428 2238.7075,528.13678 2241.5264,524.68578 2249.0544,515.11218 2255.4365,506.86218 2274.7027,481.95718 2295.396,457.42648 2297.1667,457.39338 2298.9472,457.36008 2319.0773,481.04848 2337.9299,505.36218 2344.1136,513.33718 2351.4966,522.69748 2354.3365,526.16278 2362.67,536.33138 2384.9349,567.89478 2403.3296,595.61698 2416.8774,616.03448 2420.6712,621.11178 2421.6361,620.11698 2422.3056,619.42688 2430.0017,608.06218 2438.7387,594.86218 2455.7459,569.16748 2479.4673,535.45928 2485.6947,528.13768 2487.7876,525.67708 2495.1939,516.28348 2502.1532,507.26298 2526.9365,475.13928 2557.558,439.75443 2586.875,409.36218 L 2599.8973,395.86218 2599.9487,466.61218 C 2599.9769,505.52468 2599.6625,537.36048 2599.25,537.35828 2598.8375,537.35618 2592.875,536.26398 2586,534.93128 2559.3449,529.76418 2521.4523,526.71858 2499.2021,527.95508 L 2486.9043,528.63848 2482.6267,534.25038 C 2473.3296,546.44738 2454.7981,573.10208 2438.7485,597.36218 2429.4701,611.38718 2421.3435,622.95648 2420.6894,623.07178 2420.0352,623.18708 2414.325,615.19688 2408,605.31578 2395.5608,585.88298 2367.0532,544.69618 2359.2698,534.91208 L 2354.457,528.86218 2343.9785,528.07698 C 2338.2153,527.64508 2325.175,527.70098 2315,528.20108 2304.0059,528.74148 2290.4141,528.74658 2281.5,528.21368 2273.25,527.72048 2260.4929,527.60878 2253.1508,527.96548 L 2239.8017,528.61398 2231.5832,539.73808 C 2220.0703,555.32118 2202.7661,580.43468 2187.5614,603.62668 2180.4452,614.48118 2174.0808,623.36218 2173.4184,623.36218 2172.756,623.36218 2171.9336,622.63148 2171.5909,621.73838 2169.3409,615.87518 2114.992,537.08078 2108.9263,530.88788 L 2106.013,527.91368 2082.7565,528.02188 C 1995.2045,528.42938 1911.6201,555.60138 1827.9808,610.84568 1787.0176,637.90208 1751.7789,667.47968 1710.4496,709.49538 1665.5492,755.14138 1625.994,804.04218 1586.7978,862.36218 1576.2628,878.03718 1567.3538,890.86218 1567,890.86218 1566.6462,890.86218 1557.7372,878.03718 1547.2022,862.36218 1526.7705,831.96188 1517.6814,819.43778 1498.3345,795.02628 1477.3581,768.55858 1462.7293,751.28638 1461.5938,751.64678 1460.0899,752.12398 1440.5833,775.37018 1424.6715,795.64738 1404.3741,821.51348 1393.4544,836.59088 1374.3621,865.11218 1364.6976,879.54968 1356.6625,891.36218 1356.5063,891.36218 1356.3501,891.36218 1348.2992,879.54968 1338.6153,865.11218 1317.5648,833.72868 1318.5981,835.10038 1316.3357,835.53608 1315.2522,835.74468 1307.1131,846.96698 1296.1459,863.37388 1286.0399,878.49248 1277.4853,890.97318 1277.1357,891.10888 1276.786,891.24458 1272.675,885.40228 1268,878.12588 1257.1603,861.25448 1238.9953,835.00428 1228.3737,820.86218 1203.4545,787.68338 1174.3496,752.36218 1171.9294,752.36218 1171.0067,752.36218 1166.8984,756.29968 1162.7998,761.11218 1156.2872,768.75918 1150.7514,775.64788 1126.5,806.28298 1112.1127,824.45748 1070.5242,884.22668 1068.3833,889.80578 1068.0548,890.66178 1067.4586,891.36218 1067.0584,891.36218 1066.6583,891.36218 1057.9465,878.87468 1047.699,863.61218 z"
             style="fill:#93a7ac;fill-opacity:1" />
        <path
             inkscape:connector-curvature="0"
             id="path3086"
             d="M 72.442868,1047.621 C 57.751813,1027.5848 30.502728,995.32258 12.055925,976.12448 L 0,963.57748 0,754.04078 0,544.50408 5.75,542.83188 C 29.719913,535.86098 56.795538,530.59478 83.200182,527.76808 100.27236,525.94038 143.47632,525.34688 146.14237,526.90338 149.25935,528.72308 176.17874,566.67178 198.4386,600.62608 206.27626,612.58138 211.99276,620.34638 212.9386,620.32218 213.85443,620.29878 221.6355,609.44558 231.75823,594.07218 248.17708,569.13698 274.23149,531.86028 277.8602,528.11288 279.31946,526.60598 281.83598,526.33348 296.02705,526.14568 335.51266,525.62338 389.26784,525.98898 392.57566,526.80238 395.14113,527.43318 415.70146,555.93598 440.22761,592.86218 450.45121,608.25468 458.8786,619.96218 459.83042,620.09468 461.01002,620.25898 466.57361,612.62868 478.78825,594.09468 494.34889,570.48358 505.31062,554.67068 520.65886,533.69408 L 525.81772,526.64338 538.15886,525.95758 C 552.06664,525.18458 581.2544,526.59398 600,528.94358 687.08015,539.85838 773.57434,579.27818 855.5,645.38788 922.6021,699.53568 989.12811,774.37758 1047.699,861.61218 1057.9465,876.87468 1066.6583,889.36218 1067.0584,889.36218 1067.4586,889.36218 1068.0548,888.66178 1068.3833,887.80578 1070.5242,882.22668 1112.1127,822.45748 1126.5,804.28298 1150.7514,773.64788 1156.2872,766.75918 1162.7998,759.11218 1166.8984,754.29968 1171.0067,750.36218 1171.9294,750.36218 1174.3496,750.36218 1203.4545,785.68338 1228.3737,818.86218 1238.9953,833.00428 1257.1603,859.25448 1268,876.12588 1272.675,883.40228 1276.786,889.24458 1277.1357,889.10888 1277.4853,888.97318 1286.0399,876.49248 1296.1459,861.37388 1307.1131,844.96698 1315.2522,833.74468 1316.3357,833.53608 1318.5981,833.10038 1317.5648,831.72868 1338.6153,863.11218 1348.2992,877.54968 1356.3501,889.36218 1356.5063,889.36218 1356.6625,889.36218 1364.6976,877.54968 1374.3621,863.11218 1393.4544,834.59088 1404.3741,819.51348 1424.6715,793.64738 1440.5833,773.37018 1460.0899,750.12398 1461.5938,749.64678 1462.7293,749.28638 1477.3581,766.55858 1498.3345,793.02628 1517.6814,817.43778 1526.7705,829.96188 1547.2022,860.36218 1557.7372,876.03718 1566.6462,888.86218 1567,888.86218 1567.3538,888.86218 1576.2628,876.03718 1586.7978,860.36218 1611.43,823.71198 1628.3908,801.09338 1658.4096,764.86218 1691.474,724.95498 1733.3295,682.61258 1769.5,652.47938 1847.7578,587.28368 1930.9683,546.25058 2014,531.91038 2037.475,527.85608 2057.5205,526.13938 2082.7565,526.02188 L 2106.013,525.91368 2108.9263,528.88788 C 2114.992,535.08078 2169.3409,613.87518 2171.5909,619.73838 2171.9336,620.63148 2172.756,621.36218 2173.4184,621.36218 2174.0808,621.36218 2180.4452,612.48118 2187.5614,601.62668 2202.7661,578.43468 2220.0703,553.32118 2231.5832,537.73808 L 2239.8017,526.61398 2253.1508,525.96548 C 2260.4929,525.60878 2273.25,525.72048 2281.5,526.21368 2290.4141,526.74658 2304.0059,526.74148 2315,526.20108 2325.175,525.70098 2338.2153,525.64508 2343.9785,526.07698 L 2354.457,526.86218 2359.2698,532.91208 C 2367.0532,542.69618 2395.5608,583.88298 2408,603.31578 2414.325,613.19688 2420.0352,621.18708 2420.6894,621.07178 2421.3435,620.95648 2429.4701,609.38718 2438.7485,595.36218 2454.7981,571.10208 2473.3296,544.44738 2482.6267,532.25038 L 2486.9043,526.63848 2499.2021,525.95608 C 2521.6812,524.70878 2558.0624,527.64608 2586.25,532.98408 L 2600,535.58788 2600,767.55668 2600,999.52548 2590.2403,1011.1938 C 2584.8725,1017.6114 2575.5409,1029.1622 2569.5034,1036.8622 2563.466,1044.5622 2558.1828,1051.0122 2557.7631,1051.1955 2557.3434,1051.3789 2557,1052.1664 2557,1052.9455 2557,1054.1477 2549.997,1054.3584 2510.75,1054.3373 L 2464.5,1054.3124 2455.3534,1042.0873 C 2442.033,1024.2835 2421.8749,1000.2412 2420.5999,1000.6372 2419.1498,1001.0876 2400.7753,1023.0507 2387.262,1040.486 L 2376.5073,1054.3622 2297.0036,1054.3361 2217.5,1054.3101 2208.3457,1042.0861 C 2195.6526,1025.1368 2175.2923,1000.8622 2173.7692,1000.8622 2172.3266,1000.8622 2156.1028,1020.0476 2140.262,1040.486 L 2129.5073,1054.3622 2083.9232,1054.3622 2038.339,1054.3622 2035.0033,1049.7173 C 2028.7079,1040.951 2004.29,1010.8561 1992.9301,997.86218 1977.6083,980.33648 1944.6303,946.92778 1927.6527,931.73218 1881.6048,890.51748 1835.7963,860.81348 1784.3833,838.83038 1751.8964,824.93978 1712.6509,814.90628 1677,811.37668 1659.9582,809.68948 1624.1456,809.77378 1622.4802,811.50508 1619.4516,814.65338 1594.4837,850.47678 1582,869.58508 1574.2985,881.37338 1567.8557,890.24388 1567,890.23708 1566.1531,890.23038 1558.4145,879.47878 1549.2264,865.54368 1540.276,851.96888 1527.9862,833.99968 1521.9157,825.61218 L 1510.8786,810.36218 1502.1893,810.14688 C 1497.4102,810.02848 1491.7,809.97578 1489.5,810.02978 1487.3,810.08378 1474.475,810.10648 1461,810.08038 1426.0991,810.01258 1413.6853,810.40268 1412.2108,811.61348 1409.9175,813.49658 1383.9529,850.31208 1370.7775,870.36218 1363.7298,881.08718 1357.3374,889.86218 1356.5723,889.86218 1355.8071,889.86218 1347.4986,878.38718 1338.1089,864.36218 1328.7192,850.33718 1320.1181,837.73718 1318.9954,836.36218 L 1316.9541,833.86218 1314.227,837.03508 C 1312.7272,838.78018 1304.075,851.46758 1295,865.22918 1285.925,878.99088 1277.9466,890.27558 1277.2702,890.30628 1276.5938,890.33708 1269.5634,880.57468 1261.647,868.61218 1248.272,848.40108 1228.8117,820.66938 1223,813.53878 L 1220.5,810.47138 1208.5,810.25458 C 1192.5545,809.96658 1150.5022,809.98258 1135.5,810.28248 1125.842,810.47558 1123.176,810.84828 1121.8398,812.19228 1118.6697,815.38088 1098.5185,843.98078 1084.3768,865.36218 1076.5558,877.18718 1069.3023,887.94378 1068.258,889.26568 L 1066.3593,891.66918 1052.5523,870.76568 C 1038.5954,849.63508 1017.518,819.50388 1012.6417,813.71148 1010.0804,810.66898 1009.6719,810.54658 1000.7447,810.14818 966.40849,808.61588 922.20106,814.50418 886.01521,825.42978 849.80994,836.36118 803.7894,858.73658 768.5,882.56598 722.64193,913.53208 674.52008,957.84368 631.30429,1008.8986 619.49795,1022.8466 600.91587,1046.3514 597.5365,1051.6122 L 595.76998,1054.3622 549.38499,1054.3622 C 510.03323,1054.3622 503,1054.1474 503,1052.9455 503,1052.1664 502.6625,1051.3789 502.25,1051.1955 501.8375,1051.0122 497.46965,1045.6872 492.54367,1039.3622 479.33141,1022.3975 460.88147,1000.3622 459.88942,1000.3622 458.84143,1000.3622 438.07648,1025.2206 425.01438,1042.1122 L 415.54161,1054.3622 335.7708,1054.3622 C 267.6156,1054.3622 256,1054.1559 256,1052.9455 256,1052.1664 255.65117,1051.3789 255.22482,1051.1955 254.79847,1051.0122 250.42902,1045.6872 245.51493,1039.3622 230.04407,1019.4494 213.74181,1000.2817 212.59944,1000.661 211.08473,1001.1641 196.44893,1018.6245 181.20833,1038.1105 L 168.5,1054.3589 122.94287,1054.3605 77.385737,1054.3622 72.442868,1047.621 z"
             style="fill:#b7c4c8;fill-opacity:1" />
        <path
             inkscape:connector-curvature="0"
             id="path3084"
             d="M 0,1007.1435 0,961.92478 6.0789824,967.89348 C 14.784997,976.44158 32.988054,996.68748 45.949451,1012.2386 56.064486,1024.3746 74.576607,1048.0177 76.386821,1051.1122 76.966545,1052.1032 69.129544,1052.3622 38.559017,1052.3622 L 0,1052.3622 0,1007.1435 z M 169.63733,1051.1122 C 173.42126,1044.8505 210.74967,999.27898 212.60005,998.66218 213.74173,998.28158 230.04269,1017.4477 245.51493,1037.3622 250.42902,1043.6872 254.79847,1049.0122 255.22482,1049.1955 255.65117,1049.3789 256,1050.1664 256,1050.9455 256,1052.1461 249.35464,1052.3622 212.44098,1052.3622 177.85757,1052.3622 169.03761,1052.1046 169.63733,1051.1122 z M 416.63586,1051.1122 C 420.45474,1044.7803 458.55099,998.36218 459.92884,998.36218 460.8877,998.36218 479.54876,1020.6766 492.54367,1037.3622 497.46965,1043.6872 501.8375,1049.0122 502.25,1049.1955 502.6625,1049.3789 503,1050.1664 503,1050.9455 503,1052.1461 496.35464,1052.3622 459.44098,1052.3622 424.85836,1052.3622 416.03732,1052.1046 416.63586,1051.1122 z M 597.5365,1049.6122 C 600.91587,1044.3514 619.49795,1020.8466 631.30429,1006.8986 674.52008,955.84368 722.64193,911.53208 768.5,880.56598 803.7894,856.73658 849.80994,834.36118 886.01521,823.42978 922.20106,812.50418 966.40849,806.61588 1000.7447,808.14818 1009.6719,808.54658 1010.0804,808.66898 1012.6417,811.71148 1017.518,817.50388 1038.5954,847.63508 1052.5523,868.76568 L 1066.3593,889.66918 1068.258,887.26568 C 1069.3023,885.94378 1076.5558,875.18718 1084.3768,863.36218 1098.5185,841.98078 1118.6697,813.38088 1121.8398,810.19228 1123.176,808.84828 1125.842,808.47558 1135.5,808.28248 1150.5022,807.98258 1192.5545,807.96658 1208.5,808.25458 L 1220.5,808.47138 1223,811.53878 C 1228.8117,818.66938 1248.272,846.40108 1261.647,866.61218 1269.5634,878.57468 1276.5938,888.33708 1277.2702,888.30628 1277.9466,888.27558 1285.925,876.99088 1295,863.22918 1304.075,849.46758 1312.7272,836.78018 1314.227,835.03508 L 1316.9541,831.86218 1318.9954,834.36218 C 1320.1181,835.73718 1328.7192,848.33718 1338.1089,862.36218 1347.4986,876.38718 1355.8071,887.86218 1356.5723,887.86218 1357.3374,887.86218 1363.7298,879.08718 1370.7775,868.36218 1383.9529,848.31208 1409.9175,811.49658 1412.2108,809.61348 1413.6853,808.40268 1426.0991,808.01258 1461,808.08038 1474.475,808.10648 1487.3,808.08378 1489.5,808.02978 1491.7,807.97578 1497.4102,808.02848 1502.1893,808.14688 L 1510.8786,808.36218 1521.9157,823.61218 C 1527.9862,831.99968 1540.276,849.96888 1549.2264,863.54368 1558.4145,877.47878 1566.1531,888.23038 1567,888.23708 1567.8557,888.24388 1574.2985,879.37338 1582,867.58508 1594.4837,848.47678 1619.4516,812.65338 1622.4802,809.50508 1624.1456,807.77378 1659.9582,807.68948 1677,809.37668 1737.2856,815.34518 1796.0118,836.72428 1855.5,874.35888 1912,910.10298 1974.0801,969.06508 2026.597,1036.8622 2032.1355,1044.0122 2036.9935,1050.4247 2037.3925,1051.1122 2037.9727,1052.1117 1893.6035,1052.3622 1316.944,1052.3622 L 595.76998,1052.3622 597.5365,1049.6122 z M 2130.6404,1051.1122 C 2134.5376,1044.689 2171.7203,999.21988 2173.5344,998.65898 2175.0948,998.17658 2212.396,1043.6281 2216.0631,1050.4802 2217.0422,1052.3095 2215.8496,1052.3622 2173.4762,1052.3622 2138.863,1052.3622 2130.0382,1052.1047 2130.6404,1051.1122 z M 2377.6404,1051.1122 C 2381.6352,1044.5281 2418.7329,999.21718 2420.605,998.63548 2422.1658,998.15058 2459.4108,1043.6715 2463.1321,1050.6122 2464.019,1052.2665 2461.6852,1052.3622 2420.4762,1052.3622 2385.863,1052.3622 2377.0382,1052.1047 2377.6404,1051.1122 z M 2557,1051.3698 C 2557,1050.824 2557.8558,1049.3615 2558.9019,1048.1198 2559.9479,1046.8781 2568.0176,1036.8622 2576.8346,1025.8622 2585.6516,1014.8622 2594.4539,1004.0622 2596.3952,1001.8622 L 2599.9249,997.86218 2599.9625,1025.1122 2600,1052.3622 2578.5,1052.3622 C 2564.9432,1052.3622 2557,1051.9956 2557,1051.3698 z"
             style="fill:#dbdee3;fill-opacity:1" />
    </g>
</svg>
